<?xml version="1.0" encoding="utf-8"?>
<!-- Generator: Adobe Illustrator 17.0.0, SVG Export Plug-In . SVG Version: 6.00 Build 0)  -->
<!DOCTYPE svg PUBLIC "-//W3C//DTD SVG 1.1//EN" "http://www.w3.org/Graphics/SVG/1.1/DTD/svg11.dtd">
<svg version="1.1" id="Ebene_1" xmlns="http://www.w3.org/2000/svg" xmlns:xlink="http://www.w3.org/1999/xlink" x="0px" y="0px"
	 width="152px" height="32.5px" viewBox="23.75 83.5 152 32.5" enable-background="new 23.75 83.5 152 32.5" xml:space="preserve">
<g>
	<g>
		<defs>
			<rect id="SVGID_1_" y="59.5" width="200" height="81"/>
		</defs>
		<clipPath id="SVGID_2_">
			<use xlink:href="#SVGID_1_"  overflow="visible"/>
		</clipPath>
		<path clip-path="url(#SVGID_2_)" fill="#0C100E" d="M25,110.4l3.85-4.6c2.65,2.2,5.45,3.6,8.8,3.6c2.65,0,4.25-1.05,4.25-2.8v-0.1
			c0-1.65-1-2.5-5.95-3.75c-5.95-1.5-9.75-3.15-9.75-9v-0.1c0-5.35,4.3-8.9,10.3-8.9c4.3,0,7.95,1.35,10.95,3.75l-3.35,4.9
			c-2.6-1.8-5.2-2.9-7.65-2.9c-2.5,0-3.8,1.15-3.8,2.55v0.1c0,1.95,1.25,2.55,6.35,3.85c6,1.55,9.35,3.7,9.35,8.85V106
			c0,5.85-4.45,9.15-10.8,9.15C33.05,115.15,28.55,113.55,25,110.4"/>
	</g>
	<g>
		<defs>
			<rect id="SVGID_3_" y="59.5" width="200" height="81"/>
		</defs>
		<clipPath id="SVGID_4_">
			<use xlink:href="#SVGID_3_"  overflow="visible"/>
		</clipPath>
		<path clip-path="url(#SVGID_4_)" fill="#0C100E" d="M51.95,100.05v-0.1c0-8.4,6.3-15.25,15.35-15.25c5.55,0,8.9,1.85,11.6,4.55
			L74.75,94c-2.25-2.05-4.6-3.35-7.55-3.35c-4.95,0-8.55,4.15-8.55,9.2v0.1c0,5.05,3.5,9.25,8.55,9.25c3.35,0,5.45-1.35,7.75-3.45
			l4.15,4.15c-3.05,3.25-6.4,5.25-12.1,5.25C58.4,115.2,51.95,108.5,51.95,100.05"/>
	</g>
	<g>
		<defs>
			<rect id="SVGID_5_" y="59.5" width="200" height="81"/>
		</defs>
		<clipPath id="SVGID_6_">
			<use xlink:href="#SVGID_5_"  overflow="visible"/>
		</clipPath>
		<polygon clip-path="url(#SVGID_6_)" fill="#0090D0" points="82.9,85.25 96.5,85.25 96.5,90.25 89.05,90.25 89.05,110.25 
			96.5,110.25 96.5,115.25 82.9,115.25 		"/>
	</g>
	<g>
		<defs>
			<rect id="SVGID_7_" y="59.5" width="200" height="81"/>
		</defs>
		<clipPath id="SVGID_8_">
			<use xlink:href="#SVGID_7_"  overflow="visible"/>
		</clipPath>
		<polygon clip-path="url(#SVGID_8_)" fill="#0090D0" points="101.45,110.25 108.95,110.25 108.95,90.25 101.45,90.25 101.45,85.25 
			115.1,85.25 115.1,115.25 101.45,115.25 		"/>
	</g>
	<g>
		<defs>
			<rect id="SVGID_9_" y="59.5" width="200" height="81"/>
		</defs>
		<clipPath id="SVGID_10_">
			<use xlink:href="#SVGID_9_"  overflow="visible"/>
		</clipPath>
		<path clip-path="url(#SVGID_10_)" fill="#0C100E" d="M122.1,85.25h13.45c3.75,0,6.65,1.05,8.6,3c1.65,1.65,2.55,3.95,2.55,6.75
			v0.1c0,4.75-2.55,7.75-6.3,9.15l7.2,10.55H140l-6.3-9.45h-0.1h-5v9.45h-6.5C122.1,114.8,122.1,85.25,122.1,85.25z M135.15,99.55
			c3.15,0,4.95-1.7,4.95-4.15v-0.1c0-2.8-1.95-4.2-5.1-4.2h-6.45v8.45H135.15z"/>
	</g>
	<g>
		<defs>
			<rect id="SVGID_11_" y="59.5" width="200" height="81"/>
		</defs>
		<clipPath id="SVGID_12_">
			<use xlink:href="#SVGID_11_"  overflow="visible"/>
		</clipPath>
		<polygon clip-path="url(#SVGID_12_)" fill="#0C100E" points="152.55,85.25 174.8,85.25 174.8,91 159,91 159,97 172.9,97 
			172.9,102.75 159,102.75 159,108.95 175,108.95 175,114.7 152.55,114.7 		"/>
	</g>
</g>
</svg>
