<?xml version="1.0" encoding="utf-8"?>
<!-- Generator: Adobe Illustrator 17.0.2, SVG Export Plug-In . SVG Version: 6.00 Build 0)  -->
<svg version="1.2" baseProfile="tiny" id="Layer_1" xmlns="http://www.w3.org/2000/svg" xmlns:xlink="http://www.w3.org/1999/xlink"
	 x="0px" y="0px" width="500px" height="192px" viewBox="0 0 500 192" xml:space="preserve">
<g>
	<path fill="#8D8D8C" d="M0,191.8h339.9V0H0V191.8z M332.1,184.1H7.8V7.7h324.3V184.1z"/>
	<path fill="#575756" d="M25.2,115.5l15.5-2.4c0.9,6.2,3.3,10.9,7.3,14.2c4,3.3,9.5,4.9,16.6,4.9c7.2,0,12.5-1.5,16-4.4
		c3.5-2.9,5.2-6.4,5.2-10.3c0-3.5-1.5-6.3-4.6-8.3c-2.1-1.4-7.5-3.2-16-5.3c-11.5-2.9-19.4-5.4-23.8-7.5c-4.4-2.1-7.8-5-10.1-8.8
		c-2.3-3.7-3.4-7.9-3.4-12.4c0-4.1,0.9-7.9,2.8-11.4c1.9-3.5,4.4-6.4,7.7-8.7c2.4-1.8,5.7-3.3,9.9-4.6c4.2-1.2,8.7-1.9,13.5-1.9
		c7.2,0,13.6,1,19.1,3.1c5.5,2.1,9.5,4.9,12.1,8.5c2.6,3.6,4.4,8.3,5.4,14.3l-15.3,2.1c-0.7-4.7-2.7-8.5-6-11.1c-3.3-2.7-8-4-14.1-4
		c-7.2,0-12.3,1.2-15.4,3.6c-3.1,2.4-4.6,5.2-4.6,8.3c0,2,0.6,3.9,1.9,5.5c1.3,1.7,3.3,3.1,6,4.2c1.6,0.6,6.2,1.9,13.8,4
		c11.1,3,18.8,5.4,23.2,7.3c4.4,1.9,7.8,4.6,10.3,8.2c2.5,3.6,3.7,8.1,3.7,13.4c0,5.2-1.5,10.1-4.6,14.7c-3,4.6-7.4,8.2-13.2,10.7
		c-5.7,2.5-12.2,3.8-19.5,3.8c-12,0-21.1-2.5-27.4-7.5C31,132.7,27,125.3,25.2,115.5"/>
	<path fill="#575756" d="M154.6,129.1l2.3,13.8c-4.4,0.9-8.3,1.4-11.8,1.4c-5.7,0-10.1-0.9-13.2-2.7c-3.1-1.8-5.3-4.2-6.6-7.1
		c-1.3-2.9-1.9-9.1-1.9-18.5V63h-11.5V50.8h11.5V27.9l15.6-9.4v32.2h15.7V63h-15.7v54c0,4.5,0.3,7.3,0.8,8.6c0.5,1.3,1.4,2.3,2.7,3
		c1.2,0.7,3,1.1,5.3,1.1C149.5,129.7,151.8,129.5,154.6,129.1"/>
	<path fill="#575756" d="M169.7,143.1V50.8h14.1v14c3.6-6.5,6.9-10.9,9.9-12.9c3-2.1,6.4-3.1,10-3.1c5.3,0,10.6,1.7,16.1,5
		l-5.4,14.5c-3.8-2.3-7.6-3.4-11.5-3.4c-3.4,0-6.5,1-9.2,3.1c-2.7,2.1-4.7,4.9-5.8,8.6c-1.7,5.6-2.6,11.6-2.6,18.2v48.3H169.7z"/>
	<path fill="#575756" d="M226.3,150.7l15.2,2.3c0.6,4.7,2.4,8.1,5.3,10.3c3.9,2.9,9.2,4.3,15.9,4.3c7.2,0,12.8-1.5,16.8-4.3
		c3.9-2.9,6.6-7,8-12.2c0.8-3.2,1.2-9.9,1.1-20.1c-6.8,8.1-15.3,12.1-25.5,12.1c-12.7,0-22.5-4.6-29.5-13.7
		c-7-9.2-10.4-20.1-10.4-32.9c0-8.8,1.6-16.9,4.8-24.4c3.2-7.4,7.8-13.2,13.9-17.2c6.1-4.1,13.2-6.1,21.3-6.1
		c10.9,0,19.9,4.4,26.9,13.2V50.8h14.4v79.8c0,14.4-1.5,24.5-4.4,30.5c-2.9,6-7.6,10.7-13.9,14.2c-6.3,3.5-14.1,5.2-23.4,5.2
		c-11,0-19.9-2.5-26.7-7.4C229.3,168.1,226.1,160.7,226.3,150.7 M239.2,95.3c0,12.1,2.4,20.9,7.2,26.5c4.8,5.6,10.8,8.3,18.1,8.3
		c7.2,0,13.2-2.8,18.1-8.3c4.9-5.5,7.3-14.2,7.3-26c0-11.3-2.5-19.8-7.5-25.5c-5-5.7-11-8.6-18.1-8.6c-7,0-12.9,2.8-17.7,8.5
		C241.7,75.8,239.2,84.2,239.2,95.3"/>
	<path fill="#8D8D8C" d="M432.4,131c-5.2,4.4-10.2,7.6-15.1,9.4c-4.8,1.8-10,2.7-15.5,2.7c-9.1,0-16.1-2.2-21-6.7
		c-4.9-4.4-7.3-10.1-7.3-17.1c0-4.1,0.9-7.8,2.8-11.1c1.8-3.4,4.3-6.1,7.3-8.1c3-2,6.4-3.6,10.1-4.6c2.8-0.7,6.9-1.4,12.5-2.1
		c11.4-1.4,19.7-3,25.1-4.8c0.1-1.9,0.1-3.2,0.1-3.7c0-5.7-1.3-9.8-4-12.1c-3.6-3.2-8.9-4.8-16-4.8c-6.6,0-11.5,1.2-14.7,3.5
		c-3.2,2.3-5.5,6.4-7,12.3l-13.8-1.9c1.2-5.9,3.3-10.6,6.2-14.3c2.9-3.6,7-6.4,12.4-8.4c5.4-2,11.7-2.9,18.8-2.9
		c7.1,0,12.8,0.8,17.3,2.5c4.4,1.7,7.7,3.8,9.8,6.3c2.1,2.5,3.5,5.7,4.4,9.6c0.5,2.4,0.7,6.7,0.7,13v18.8c0,13.1,0.3,21.4,0.9,24.8
		c0.6,3.5,1.8,6.8,3.6,10h-14.7C433.7,138.3,432.8,134.9,432.4,131 M431.2,99.6c-5.1,2.1-12.8,3.9-23,5.3c-5.8,0.8-9.9,1.8-12.3,2.8
		c-2.4,1-4.3,2.6-5.6,4.6c-1.3,2-1.9,4.2-1.9,6.7c0,3.8,1.4,6.9,4.3,9.4c2.8,2.5,7,3.8,12.5,3.8c5.4,0,10.2-1.2,14.5-3.6
		c4.2-2.4,7.3-5.6,9.3-9.7c1.5-3.2,2.3-7.9,2.3-14.1V99.6z"/>
	<path fill="#8D8D8C" d="M498,128.7l2,12.4c-4,0.8-7.5,1.2-10.6,1.2c-5.1,0-9.1-0.8-11.9-2.4c-2.8-1.6-4.8-3.7-5.9-6.4
		c-1.1-2.6-1.7-8.2-1.7-16.6V69.2h-10.3V58.2h10.3V37.7l14-8.4v29H498v10.9h-14.1v48.5c0,4,0.2,6.6,0.7,7.7c0.5,1.1,1.3,2.1,2.4,2.7
		c1.1,0.7,2.7,1,4.8,1C493.4,129.2,495.4,129,498,128.7"/>
	<rect x="350" y="127.3" fill="#8D8D8C" width="16" height="16"/>
</g>
</svg>
